<?xml version="1.0" encoding="utf-8"?>
<!-- Generator: Adobe Illustrator 22.1.0, SVG Export Plug-In . SVG Version: 6.00 Build 0)  -->
<svg version="1.1" id="Ebene_1" xmlns="http://www.w3.org/2000/svg" xmlns:xlink="http://www.w3.org/1999/xlink" x="0px" y="0px"
	 viewBox="0 0 211.3 249.1" style="enable-background:new 0 0 211.3 249.1;" xml:space="preserve">
<title>logo</title>
<g id="Katze_1_">
	<g id="XMLID_1_">
		<g>
			<path d="M191,108.1l-3.9,96.2l-85.3,44.8l-81.4-51.5l3.9-96.2l22.1-11.6L28.8,58.6L63.2,0l11,0.1l5.1,27.2l35.7,12.5l25.7-22.1
				l23.8,42.1L151,82.8L191,108.1z M130.2,78.6L132,66l-10-7.9l-11.9,4.7l-1.8,12.6l10,7.9L130.2,78.6z M79.2,72.3l1-11.4l-9.4-6.6
				l-10.4,4.9l-1,11.4l9.4,6.6L79.2,72.3z"/>
		</g>
		<g>
		</g>
	</g>
</g>
</svg>
