<?xml version="1.0" encoding="utf-8"?>
<!-- Generator: Adobe Illustrator 25.0.0, SVG Export Plug-In . SVG Version: 6.00 Build 0)  -->
<svg version="1.1" id="Ebene_1" xmlns="http://www.w3.org/2000/svg" xmlns:xlink="http://www.w3.org/1999/xlink" x="0px" y="0px"
	 viewBox="0 0 211.3 249.1" style="enable-background:new 0 0 211.3 249.1;" xml:space="preserve">
<path d="M38,248.4c-0.1-4.4,1.9-5.9,6.1-5.9c7.5,0,14.3-2.5,16.7-10.2c6.9-21.3,13.2-42.8,20-65.2H0c-0.1-4.5,1.7-6.4,5.5-6.3
	c12,0.3,18.3-6.4,21.4-17.1c11.7-40.4,23.3-80.9,34.9-121.3c0.5-1.9,0.9-3.9,1-5.9c0.3-5-1.6-7.9-6.6-9c-3.9-0.9-7.8-1.2-12-1.9
	C43.8,2.6,43.7,0,48,0c21.3,0.1,42.7,0.1,64,0.1c0.6,0.1,1.2,0.2,1.7,0.4c0.3,3.8-1.4,5.7-5.3,6c-16.1,1.3-19.3,3.8-24.1,20
	c-10.6,35.9-21,71.9-31.2,107.9c-1.3,4.8-2.4,9.7-3.1,14.6c-0.5,3.2,1.3,5.8,4.6,6.1c8.9,0.7,17.9,1,26.9,1.2c1,0,2.6-1.5,3-2.6
	c4.8-16.4,9.8-32.8,14-49.4c2.7-10.7-0.5-14.2-11.6-14.9c-1.9-0.1-3.9-0.6-5.8-0.8c-0.3-4.7,1.6-5.9,5.8-5.9
	c39.6,0.2,79.3,0.1,119,0.1c1.6,0,3.2,0.1,5.4,0.2c-4,13.9-7.8,27.3-11.9,40.6c-0.4,1.4-3.3,2.1-5,3.1l-1.2-1c0.2-2,0.4-4.1,0.7-6.1
	c2.4-14.5-3.1-23-17.6-25.4c-7-1.1-14.3-0.9-21.4-1.1c-8.3-0.2-16.6-0.4-25-0.2c-1.7,0-4.4,1.5-4.8,2.8c-6.2,20-12.1,40.1-18.3,61.1
	h55.7c-0.6,2.3-1,3.7-1.2,5.1c-0.5,4-2.5,5.3-6.7,5.3c-15.3-0.2-30.6,0.2-46,0.1c-3.5,0-5.2,0.8-6.2,4.5
	c-4.6,16.8-9.7,33.6-14.5,50.3c-4.6,15.9-2.1,19.4,14.3,20.6c1,0.1,1.9,0.2,3,0.4c0.1,3.9-0.9,6.1-5.3,6
	c-19.8-0.3-39.6-0.3-59.5-0.4C39.6,248.6,38.8,248.5,38,248.4z"/>
</svg>
