<?xml version="1.0" encoding="UTF-8"?>
<svg id="uglygotchi" xmlns="http://www.w3.org/2000/svg" viewBox="0 0 545.58 648">
  <path id="frame" d="M240.79,1.1c116.24-9.03,204.99,37.47,260.94,139.2,78.45,142.62,53.27,371.53-88.67,466.17-96.16,64.12-229.41,52.92-313.46-26.18C-16.41,471.12-29.63,257.75,52.39,125.56,92.65,60.68,162.51,7.18,240.79,1.1ZM130.34,148.61c-5.26,1.2-8.33,3.13-9.71,8.52-1.22,95.86-1.22,192.28,0,288.14,1.7,6.58,6.3,8.26,12.63,8.82,94.49-.58,189.19.96,283.55-.78,6.58-1.7,8.26-6.3,8.82-12.63-.58-94.49.96-189.19-.78-283.55-1.7-6.58-6.3-8.26-12.63-8.82l-281.88.3ZM202.76,539.1c0-16.69-13.53-30.22-30.22-30.22s-30.22,13.53-30.22,30.22,13.53,30.22,30.22,30.22,30.22-13.53,30.22-30.22ZM403.16,539.1c0-16.69-13.53-30.22-30.22-30.22s-30.22,13.53-30.22,30.22,13.53,30.22,30.22,30.22,30.22-13.53,30.22-30.22ZM302.96,561.37c0-16.69-13.53-30.22-30.22-30.22s-30.22,13.53-30.22,30.22,13.53,30.22,30.22,30.22,30.22-13.53,30.22-30.22Z" />
</svg>