<?xml version="1.0" standalone="no"?>
<!DOCTYPE svg PUBLIC "-//W3C//DTD SVG 20010904//EN"
 "http://www.w3.org/TR/2001/REC-SVG-20010904/DTD/svg10.dtd">
<svg version="1.0" xmlns="http://www.w3.org/2000/svg"
 width="414.000000pt" height="473.000000pt" viewBox="0 0 414.000000 473.000000"
 preserveAspectRatio="xMidYMid meet">

<g transform="translate(0.000000,473.000000) scale(0.100000,-0.100000)"
stroke="none">
<path d="M1765 4655 c-356 -55 -684 -227 -958 -500 -326 -325 -542 -756 -634
-1260 -22 -125 -25 -175 -30 -464 -6 -341 1 -452 38 -651 151 -800 665 -1443
1326 -1659 202 -66 363 -85 647 -78 161 4 235 10 311 27 768 164 1355 830
1520 1724 36 198 49 397 42 661 -9 334 -40 533 -127 799 -244 749 -807 1282
-1474 1396 -97 16 -160 20 -349 19 -132 -1 -267 -6 -312 -14z m1394 -1190 c16
-8 31 -22 35 -30 3 -9 6 -496 6 -1083 l0 -1066 -22 -23 -21 -23 -1067 0
c-1065 0 -1067 0 -1094 21 l-26 20 0 1069 c0 588 3 1076 6 1085 17 44 12 44
1112 45 896 0 1047 -2 1071 -15z m-1643 -2646 c101 -48 120 -179 38 -256 -63
-59 -150 -56 -216 6 -33 30 -41 45 -45 83 -7 60 1 89 34 129 51 60 117 73 189
38z m1267 7 c124 -51 134 -226 16 -286 -74 -38 -166 -14 -209 55 -33 53 -25
143 16 186 52 56 114 72 177 45z m-627 -167 c116 -56 117 -221 3 -279 -49 -25
-92 -25 -143 0 -52 26 -77 61 -84 116 -6 56 2 85 35 125 51 60 117 73 189 38z"/>
</g>
</svg>
