<?xml version="1.0" encoding="UTF-8"?>
<svg id="wowen" xmlns="http://www.w3.org/2000/svg" viewBox="0 0 563.65 648">
  <path id="logo" d="M303.79,3.58c-2.7,1.69-9.12,2.03-14.19.68-5.41-1.01-13.18-.34-17.91,1.35-4.39,1.69-5.74,3.38-3.04,3.38,6.08.34-8.79,8.45-21.29,11.83-12.84,3.04-11.49,7.77,2.03,6.42l10.81-1.01-10.14,3.38c-5.41,2.03-20.28,4.39-32.78,5.41-14.19,1.35-21.97,3.72-20.95,6.08.68,2.03-8.11,9.8-19.94,17.23-11.49,7.43-20.95,15.21-20.95,17.23s-4.39,7.43-9.8,11.83c-22.64,18.25-34.47,33.12-40.89,50.35-3.72,10.14-7.43,19.94-8.11,21.63s.34,2.03,2.03,1.01c6.42-4.06,0,19.26-9.46,34.13-13.18,20.95-18.92,47.31-13.52,64.88,2.03,7.43,5.74,13.52,7.77,13.52,2.37,0,2.7,4.73,1.35,13.85-1.35,8.79-1.01,12.84,1.35,11.49,4.73-3.04,4.39,19.6-.68,24.67-3.04,3.04-2.7,4.06,1.35,4.06,9.8,0,10.14,14.19.34,24.33l-8.79,9.12,9.12,4.06c6.76,3.38,10.14,8.79,15.54,26.7,3.72,12.17,11.15,28.39,16.9,35.48,5.41,7.43,10.14,15.54,10.14,17.57,0,2.37,1.69,4.39,3.38,4.39,2.03,0,3.38,7.1,3.38,15.88.34,15.54.34,15.88,5.74,9.46q5.07-6.42,3.04,2.7c-1.35,5.07-.68,12.17,1.35,15.88,3.72,7.1,13.52,9.46,13.52,3.04,0-9.46,6.76,2.37,8.79,15.54,2.03,13.85,1.01,16.9-10.14,33.12-21.29,30.75-32.44,80.43-20.61,90.23,2.7,2.37,5.07,6.42,5.07,8.79,0,4.06,11.49,4.73,66.57,4.06l66.57-1.01.34-9.8c0-5.41,2.37-10.81,5.07-12.5,57.45-31.09,87.18-49.34,69.61-42.58-2.7,1.01-5.74.34-6.42-2.03-1.01-3.04-2.37-3.04-6.08-.34-7.1,5.41-32.44,8.79-35.14,4.39-1.35-2.03-6.42-2.37-11.83-1.35-6.42,1.35-11.15.34-14.87-3.38-3.04-3.04-6.76-4.73-8.45-3.72-5.07,3.38-27.37-11.49-27.37-17.91,0-3.04-4.39-11.83-10.14-19.26-5.41-7.77-13.18-21.29-16.9-30.41l-6.76-16.56,11.49,12.5c14.87,15.54,19.94,18.25,40.21,21.29,10.81,1.69,15.88,1.35,15.88-1.35,0-2.03,2.37-3.72,5.41-3.72,7.43,0,3.72-8.45-4.06-8.79-3.38-.34-8.11-.68-10.48-1.01-2.03-.34-5.07-3.72-6.08-7.77-1.35-3.72-6.42-10.81-11.15-15.21-9.46-8.79-5.74-10.14,11.15-3.04,10.48,4.39,11.83,4.39,17.23-1.69,5.41-6.08,5.41-6.42-1.01-6.42-3.72,0-8.79-2.37-11.15-5.07s-6.42-5.07-8.79-5.07c-5.41,0-6.08-6.08-1.69-13.18,2.37-4.06,4.39-4.06,8.11-1.01,2.37,2.37,5.74,2.7,7.1,1.35,3.04-2.7,13.52-4.06,40.55-4.06,24.67,0,37.17,6.76,34.81,18.92-2.03,10.48,3.38,10.14,14.87-.68,12.5-12.17,17.23-8.11,14.87,13.18l-1.69,17.57,7.43-15.21c9.8-20.61,11.83-43.25,4.73-57.11-10.81-20.28-46.97-55.42-39.87-38.52,4.39,11.15,18.25,36.5,24.67,45.62,6.76,9.46,8.79,21.29,3.04,17.91-1.69-1.01-3.38-.34-3.38,1.69s-4.39,1.35-10.81-2.03c-7.1-3.72-23.65-6.76-45.96-8.11-19.26-1.01-36.5-4.06-38.52-6.08-3.04-3.04-1.69-4.06,6.08-4.06,9.46,0,18.25-5.07,18.25-10.48,0-1.01-4.06-3.04-9.12-4.39-16.9-3.38-25.34-12.84-27.03-30.08-1.69-14.19-1.01-16.56,8.79-25.68,9.46-8.79,10.14-11.15,8.45-24.33-1.01-9.8,0-20.28,3.72-30.08,5.41-14.87,5.07-15.54-2.37-31.09-4.39-9.46-9.46-15.54-11.83-14.53-2.37.68-5.41-2.37-6.42-6.76-1.01-4.73-4.06-8.45-6.76-8.45s-7.43-1.35-10.81-3.04c-3.04-1.69-8.45-4.06-11.49-5.07-6.08-1.69-8.79-9.46-3.04-8.11,1.69.68,2.7-.68,2.7-2.37-.34-2.03-2.7-2.7-5.41-2.37-4.06,1.01-3.72-.34.68-6.76,3.38-4.06,6.42-9.46,7.1-11.15,9.8-30.08,12.17-39.54,12.17-47.99,0-6.08,4.06-15.21,9.8-22.3,9.8-12.5,13.85-12.84,13.85-1.69,0,9.46,5.74,4.39,15.21-13.52,7.1-13.18,8.11-14.19,6.42-5.74-4.06,22.98-5.41,27.03-8.79,29.06-2.03,1.35-4.06,6.08-4.39,10.48-.68,4.73-3.38,13.18-6.42,18.92-9.12,17.57-6.76,29.06,8.45,40.55,4.73,3.38,5.74,3.04,7.43-3.04,1.35-4.73.68-6.42-2.7-5.07s-3.72-1.01-1.35-10.81c6.08-22.64,17.23-51.36,20.61-51.36,1.69,0,5.07-5.07,7.77-11.15l4.73-10.81.34,11.49c0,9.8.68,10.81,5.41,6.76,4.73-3.72,5.41-3.38,4.73,5.41-1.35,18.59-.34,20.95,5.07,13.85,4.39-5.74,5.07-6.08,5.07-1.01,0,7.43,3.04,7.43,8.79-.34,3.72-4.73,5.41-5.07,11.15-1.69,9.8,6.08,11.15,5.41,9.12-3.38l-2.03-7.43,3.72,7.43c2.37,4.39,6.08,7.77,8.11,7.77,2.37,0,6.76,6.76,9.8,15.21,3.38,8.45,7.43,15.21,9.12,15.21,4.73,0,3.72-5.74-3.72-20.28-3.72-7.43-6.42-14.53-6.08-16.22.68-1.35-4.73-8.79-12.17-15.88-14.53-15.21-34.13-42.24-30.08-42.24,1.35,0,7.77,5.07,14.19,10.81,6.08,6.08,10.81,8.79,9.46,6.08-5.41-14.87-5.07-17.23.34-5.74,8.45,16.56,30.75,42.92,36.83,42.92,5.07,0,3.72-8.11-6.08-35.48-8.11-22.98-11.49-40.21-7.1-37.51,1.69,1.01,4.06,6.42,5.07,12.17,1.35,5.41,3.72,10.14,5.74,10.14,2.7,0,2.7-2.03,0-6.76-2.7-5.41-2.7-6.08,1.35-4.73,3.38,1.35,4.39,0,3.38-4.39-1.35-5.07,0-6.42,6.76-6.08,4.73,0,10.14,2.03,12.17,4.06q2.37,3.38-.68,1.01c-6.42-5.07-7.77-4.06-8.79,5.74-1.01,12.17,4.73,29.4,12.17,35.82,5.74,5.07,6.08,4.73,4.73-6.76-1.35-11.83-1.35-12.17,4.06-6.76,3.04,3.04,7.43,4.73,9.8,3.72,2.7-1.01,6.76,3.72,10.14,10.81,3.38,6.76,6.76,11.49,7.77,10.81,3.04-3.38-4.73-18.25-16.9-31.09-12.84-14.19-15.88-19.26-6.42-11.83,5.07,4.39,5.07,4.06,1.69-2.7-2.37-4.06-9.46-12.84-15.88-19.94-6.42-6.76-11.83-15.21-11.83-18.92,0-3.38-3.72-8.11-8.45-10.14-4.39-2.03-9.12-6.42-10.48-10.14-1.01-3.38-10.81-12.17-21.63-19.6C357.86-.14,356.17-.48,333.19.2c-13.52.34-26.36,2.03-29.4,3.38ZM190.93,98.54c0,.68-2.7,3.38-5.74,5.74-5.41,4.39-5.74,4.06-1.35-1.35s7.1-7.1,7.1-4.39ZM240.26,135.03c-6.08,17.23-12.84,31.76-14.87,32.44-4.06,1.35,8.11-34.81,18.25-53.73,9.12-18.25,8.11-9.8-3.38,21.29ZM229.11,312.44c-4.39.68-11.15.68-15.21,0-4.39-.68-1.01-1.35,7.43-1.35s11.83.68,7.77,1.35ZM191.94,321.57c6.08,2.7,16.56,6.76,23.65,8.79,16.9,5.41,19.6,16.22,7.77,31.76-12.5,16.9-20.95,18.25-32.78,6.76-7.77-8.11-9.8-13.52-11.15-31.09-1.01-11.49-.68-20.95.34-20.95s6.42,2.03,12.17,4.73ZM202.75,472.96c1.69,7.1,1.35,9.46-2.7,9.46-10.14,0-16.9-17.57-13.52-35.14l2.37-10.48,5.74,13.52c3.38,7.43,7.1,17.57,8.11,22.64ZM449.44,146.18c1.35,5.41,3.72,11.49,5.41,13.18,5.07,5.41,3.38-5.41-2.37-14.87l-5.07-8.45,2.03,10.14ZM314.94,179.64c-5.41,14.19,3.04,47.31,14.87,58.12,7.77,7.1,8.11,5.74,1.01-10.81-3.04-7.1-7.43-21.97-9.46-33.12-3.04-13.52-5.07-18.25-6.42-14.19ZM519.05,221.2c-.34,8.79-1.35,10.48-6.08,8.79-4.39-1.69-5.07-1.01-2.7,4.39,1.35,3.38,5.07,13.85,8.45,22.98,7.43,21.63,11.49,15.21,8.45-12.5-3.04-26.02-7.77-39.87-8.11-23.65ZM298.05,228.97c2.03,7.77,10.48,15.54,13.52,12.5,2.37-2.7-8.11-19.26-12.17-19.26-1.69,0-2.37,3.04-1.35,6.76ZM541.69,237.42c-1.35,14.87,1.35,26.02,5.41,21.63,4.73-4.73,5.41-25.68,1.01-31.76-4.73-6.08-5.07-5.07-6.42,10.14ZM503.51,270.54c-3.04,22.64-3.04,31.76-1.01,44.61,1.01,5.41,1.01,7.77.34,5.07-1.01-2.7-3.72-6.42-6.42-7.77-2.7-1.69-4.73-8.11-4.73-15.88s-1.35-13.52-3.38-13.52c-1.69,0-5.41-4.06-8.11-9.46-4.73-8.45-5.07-7.43-6.08,23.65-.68,25.01,0,31.76,3.04,29.06,3.04-2.37,4.73-1.01,6.42,5.41,1.01,4.73,1.35,10.48.34,12.84s-2.03.68-2.37-4.06q-.34-8.45-6.08,1.69c-7.77,14.19-7.77,54.41.34,66.91,5.07,7.77,5.07,9.12.68,9.12s-5.74,2.03-4.73,8.79c0,1.35-1.35,3.38-3.38,4.39-6.42,4.06-23.99,67.92-23.99,86.85,0,20.95,5.07,23.99,16.56,9.12,5.41-6.42,6.76-11.83,5.41-20.95-1.69-11.15-1.35-11.49,1.69-3.72,2.03,4.73,3.04,12.5,2.03,17.57-1.01,5.41-.68,9.46,1.01,9.46,5.07,0,11.15-9.8,8.45-13.85-1.35-2.03-2.7-9.8-3.38-16.9-1.01-11.15,0-13.18,5.41-13.18,3.38,0,7.1-1.35,8.45-3.38,1.01-1.69,4.06-2.37,6.76-1.01,6.42,2.37,6.42.34,0-14.53-4.06-9.8-4.06-11.83-.34-10.48,6.42,2.7,2.7-14.53-5.41-23.32-7.77-8.79-9.8-20.61-7.1-42.92,1.69-14.19,2.37-15.21,6.42-10.14,2.7,3.72,4.39,4.39,4.73,1.69,0-2.03,2.37-4.06,5.07-4.06s5.07-2.7,5.41-6.08c0-3.38,1.01-4.06,2.03-1.69,2.7,6.76,7.77,5.07,7.77-2.7,0-3.72-1.35-5.74-3.38-4.73-2.03,1.35-2.7-3.38-1.69-12.5.68-8.11,2.37-31.43,3.38-52.04,1.35-30.08.68-38.52-3.04-41.56-4.06-3.38-5.41-1.01-7.1,14.19ZM479.85,460.45c1.35,7.1,1.01,8.45-1.01,5.07-5.07-8.11-8.79-22.64-4.73-18.59,2.03,1.69,4.39,7.77,5.74,13.52ZM461.27,513.17c0,1.69-1.35,3.04-3.38,3.04-1.69,0-3.38-2.37-3.38-5.41,0-2.7,1.69-4.06,3.38-3.04,2.03,1.01,3.38,3.38,3.38,5.41ZM328.46,258.04c-1.01,1.35,0,6.42,3.04,11.83,3.38,6.76,7.43,9.8,13.18,9.8,12.84,0,12.84,5.74,0,12.17-12.84,6.08-15.88,17.23-7.1,25.01,2.7,2.03,4.06,6.08,3.38,8.45-2.03,5.07,14.53,15.21,24.33,15.21,4.39,0,3.38-1.69-3.38-7.1-10.81-8.45-9.12-11.83,7.77-14.87,8.45-1.35,13.85-4.39,14.53-7.77,1.01-4.73,1.69-4.73,6.76.34,6.08,6.08,17.91,8.11,14.53,2.37-1.01-2.03-7.77-6.42-14.53-10.14-9.12-4.73-10.81-6.42-5.74-6.76,5.41,0,4.73-1.35-3.72-6.42-11.49-7.1-20.61-17.23-9.8-11.49,6.08,3.38,21.97,2.03,21.97-2.37,0-3.38-10.48-12.17-17.57-14.53-4.39-1.69-6.08-.34-6.08,3.72q-.34,5.41-3.72-.34c-4.39-7.43-10.48-7.77-7.43-.34,2.03,5.07,1.35,5.07-6.08.34-10.48-6.42-21.63-9.8-24.33-7.1ZM345.7,285.41c2.37,1.01,5.41.68,6.42-.34,1.35-1.01-.68-2.03-4.39-1.69-3.72,0-4.73,1.01-2.03,2.03ZM528.85,305.68c0,9.8,1.69,17.91,3.38,17.91,4.39,0,4.39-23.65,0-30.41-2.37-3.72-3.38,0-3.38,12.5ZM530.88,329.34c-1.01,1.01-2.03,7.43-2.03,14.19,0,13.18,4.73,11.15,8.11-3.72,2.03-8.79-1.35-14.87-6.08-10.48ZM543.38,362.12c-.34,10.81,1.35,20.95,4.06,24.67,4.39,5.74,4.73,5.74,7.1-.68,1.35-3.72,4.73-8.45,7.1-10.14,3.38-2.7,2.7-6.08-3.38-16.56-10.81-19.26-14.53-18.59-14.87,2.7ZM534.6,389.83c-3.72,3.72-2.7,14.87,1.01,14.87,5.07,0,8.11-10.14,4.39-13.85-1.69-1.69-4.06-2.03-5.41-1.01ZM515.33,426.32c0,4.73,1.69,8.79,3.38,8.79,2.03,0,3.38,2.7,3.38,5.74,0,4.06,1.01,4.73,3.72,2.03,5.41-5.41,2.37-22.64-4.39-23.99-4.39-1.01-6.08,1.01-6.08,7.43ZM533.24,441.87c1.35,4.73,2.37,10.48,2.37,12.5,0,2.37,1.69,4.39,3.38,4.39,5.41,0,3.72-15.54-2.37-20.61-5.07-4.39-5.41-3.72-3.38,3.72ZM519.39,457.07c0,5.41.68,7.43,1.69,4.06.68-3.04.68-7.77,0-10.14-1.01-2.03-1.69.34-1.69,6.08ZM309.2,475.66q-11.49,2.03,5.74,4.73c16.56,2.37,24.67,1.01,24.67-4.06,0-3.04-14.87-3.38-30.41-.68ZM419.7,590.22c-4.73,7.1-16.9,21.97-27.37,33.12-10.48,11.49-18.92,21.29-18.92,22.64,0,1.01,4.39,2.03,9.46,2.03,8.11,0,11.49-3.72,26.7-29.4,17.57-29.74,23.32-41.56,20.28-41.56-.68,0-5.41,5.74-10.14,13.18ZM97.66,598.66c-14.53,6.08-42.58,18.92-62.18,28.05L0,643.94l18.59,2.03c10.14,1.35,34.47,2.03,53.39,1.35l35.14-1.01,8.45-20.28c13.85-34.13,14.19-35.14,11.83-36.83-1.69-1.01-14.87,3.38-29.74,9.46ZM484.92,610.83c0,1.69,3.04,4.73,6.76,6.76,7.43,4.06,9.12.34,2.7-6.08-4.73-4.73-9.46-5.41-9.46-.68ZM505.2,627.05c0,4.06,6.42,8.79,8.79,6.42.68-.68-.68-3.38-3.72-5.74-3.04-2.7-5.07-2.7-5.07-.68Z"/>
</svg>