<?xml version="1.0" encoding="UTF-8"?>
<svg id="logo" xmlns="http://www.w3.org/2000/svg" viewBox="0 0 636.11 648">
  <path id="logo-2" data-name="logo" d="M292.89,3.17c-.69,1.78-7.93,17.54-15.95,34.98-15.46,33.59-43.99,96.11-59.65,130.79-5.15,11.39-25.96,57.17-46.07,101.56-20.21,44.39-42.61,93.93-49.84,109.98-7.23,16.05-23.88,52.61-36.86,81.25-13.08,28.63-30.62,67.28-39.04,85.9l-15.26,33.89-14.86.3-14.86.3-.3,32.99-.2,32.9,93.34-.2,93.43-.3.3-32.6.3-32.6,24.08-56.08,23.98-56.08,84.22-.3,84.12-.2,12.58,29.43c6.94,16.25,17.93,42.21,24.47,57.67l11.99,28.14v63.12h183.3v-66.29l-13.48-.3-13.48-.3-6.94-15.36c-12.78-28.24-40.52-89.57-45.08-99.58-2.48-5.45-11.99-26.16-21.1-46.07-30.12-65.49-48.65-106.12-61.93-135.74-7.23-16.05-18.63-41.02-25.27-55.49-13.67-29.82-43.99-96.31-79.66-174.88L344.91.5l-25.27-.3-25.37-.2-1.39,3.17ZM348.18,82.24c5.65,12.78,15.66,35.27,22.29,49.94,6.64,14.66,11.99,27.15,11.89,27.74,0,.99-44.39,36.26-46.57,37.06-.5.2-.89-31.21-.79-71.83,0-63.12.2-71.74,1.49-69.16.69,1.59,6.04,13.48,11.69,26.26ZM302.99,161.7l-.3,35.77-5.45-4.36c-2.97-2.38-13.57-10.8-23.58-18.63-10.01-7.83-17.93-14.76-17.64-15.36.2-.59,7.63-17.14,16.45-36.76,23.78-52.71,28.34-63.12,29.33-65.89s1.59,48.75,1.19,105.23ZM266.53,207.68c12.78,10.21,25.37,20.01,28.04,21.9,2.58,1.88,4.66,3.77,4.66,4.06,0,.4-2.77,2.87-6.14,5.65-13.18,10.5-62.72,51.23-82.54,67.77-25.56,21.4-32.4,26.95-32.8,26.55-.2-.2,5.15-12.58,11.79-27.54,38.64-86.1,52.61-116.82,53.11-116.82.3,0,11.1,8.32,23.88,18.43ZM404.36,206.09c3.86,8.42,9.41,20.51,12.29,26.75,2.77,6.24,13.08,28.73,22.79,50.04,9.61,21.2,18.92,41.22,20.51,44.49,1.59,3.17,2.77,5.85,2.58,6.04s-6.94-5.25-15.16-11.99c-8.12-6.74-35.47-29.13-60.64-49.74-25.17-20.51-45.78-37.65-45.78-37.95-.1-.3,11.69-9.81,26.16-21.2,14.47-11.39,26.55-21.01,26.85-21.5,1.59-2.48,4.06,1.09,10.4,15.06ZM303.19,317.56v47.06l-56.97.2c-31.31.2-56.87,0-56.77-.3.4-.89,12.48-11.1,27.05-22.89,6.54-5.25,28.63-23.38,49.05-40.23,20.41-16.94,37.26-30.81,37.45-30.81.1-.1.2,21.1.2,46.97ZM370.27,297.94c18.43,15.06,37.55,30.72,42.41,34.78,4.95,3.96,15.66,12.68,23.78,19.22,8.22,6.64,15.06,12.09,15.26,12.29s-25.96.4-58.16.4h-58.56l-.1-47.06c0-30.91.3-47.06.99-47.06.5,0,16.05,12.39,34.38,27.45ZM458.46,397.62c-1.59,1.19-13.87,10.7-27.25,21.2l-24.47,19.02-88.48.1h-88.38l-11.69-9.21c-6.34-5.05-18.43-14.47-26.65-20.91-8.32-6.44-15.16-11.89-15.16-12.09s64.11-.4,142.48-.3h142.38l-2.77,2.18ZM190.04,445.67c8.22,6.74,15.06,12.48,15.06,12.98,0,.4-4.76,3.86-10.6,7.53-16.74,10.7-89.87,58.66-100.77,66.09-5.45,3.67-10.01,6.54-10.21,6.34-.2-.1,1.39-4.06,3.57-8.62,2.08-4.56,10.21-22.39,17.93-39.53,17.44-38.64,33.89-74.61,36.17-79.37l1.78-3.67,15.95,13.08c8.72,7.13,22.79,18.53,31.11,25.17ZM497.39,408.12c0,.5,5.05,11.99,11.3,25.56,36.96,80.36,48.06,104.73,47.76,105.03-.2.2-22.99-14.17-50.73-32-27.74-17.83-55.59-35.77-61.83-39.73-6.24-4.06-11.49-7.73-11.69-8.22-.2-.4,6.34-5.94,14.37-12.29,8.03-6.24,22.49-17.64,32-25.27s17.64-13.87,18.13-13.87c.4-.1.69.3.69.79ZM184.39,511.46c-.99,1.78-8.22,18.33-16.05,36.66l-14.17,33.49h-38.34c-21.1,0-39.04.3-39.93.59s-1.59.2-1.59-.2c0-.89,11.39-8.62,49.84-33.69,10.7-7.03,28.83-18.83,40.13-26.36,11.3-7.43,20.81-13.57,21.2-13.57.4-.1-.1,1.39-1.09,3.07ZM476.59,523.16c27.05,17.83,75.6,49.64,82.73,54.1,3.47,2.28,6.24,4.26,6.04,4.46-.3.2-18.73.3-41.12.1-28.44-.2-40.72-.59-40.72-1.29,0-.99-18.43-45.48-26.16-63.02-1.98-4.46-3.57-8.32-3.57-8.72s1.19.1,2.77,1.19c1.49.99,10.5,6.94,20.01,13.18Z"/>
</svg>