<svg version="1.0" xmlns="http://www.w3.org/2000/svg" viewBox="190 170 642 654" preserveAspectRatio="xMidYMid meet">

<g transform="translate(0.000000,1024.000000) scale(0.100000,-0.100000)" stroke="none">
<path d="M4856 8508 c-7 -18 -80 -177 -161 -353 -156 -339 -444 -970 -602
-1320 -52 -115 -262 -577 -465 -1025 -204 -448 -430 -948 -503 -1110 -73 -162
-241 -531 -372 -820 -132 -289 -309 -679 -394 -867 l-154 -342 -150 -3 -150
-3 -3 -333 -2 -332 942 2 943 3 3 329 3 329 243 566 242 566 850 3 849 2 127
-297 c70 -164 181 -426 247 -582 l121 -284 0 -318 0 -319 925 0 925 0 0 335 0
334 -136 3 -136 3 -70 155 c-129 285 -409 904 -455 1005 -25 55 -121 264 -213
465 -304 661 -491 1071 -625 1370 -73 162 -188 414 -255 560 -138 301 -444
972 -804 1765 l-245 540 -255 3 -256 2 -14 -32z m558 -798 c57 -129 158 -356
225 -504 67 -148 121 -274 120 -280 0 -10 -448 -366 -470 -374 -5 -2 -9 315
-8 725 0 637 2 724 15 698 7 -16 61 -136 118 -265z m-456 -802 l-3 -361 -55
44 c-30 24 -137 109 -238 188 -101 79 -181 149 -178 155 2 6 77 173 166 371
240 532 286 637 296 665 10 28 16 -492 12 -1062z m-368 -464 c129 -103 256
-202 283 -221 26 -19 47 -38 47 -41 0 -4 -28 -29 -62 -57 -133 -106 -633 -517
-833 -684 -258 -216 -327 -272 -331 -268 -2 2 52 127 119 278 390 869 531
1179 536 1179 3 0 112 -84 241 -186z m1391 16 c39 -85 95 -207 124 -270 28
-63 132 -290 230 -505 97 -214 191 -416 207 -449 16 -32 28 -59 26 -61 -2 -2
-70 53 -153 121 -82 68 -358 294 -612 502 -254 207 -462 380 -462 383 -1 3
118 99 264 214 146 115 268 212 271 217 16 25 41 -11 105 -152z m-1021 -1125
l0 -475 -575 -2 c-316 -2 -574 0 -573 3 4 9 126 112 273 231 66 53 289 236
495 406 206 171 376 311 378 311 1 1 2 -213 2 -474z m677 198 c186 -152 379
-310 428 -351 50 -40 158 -128 240 -194 83 -67 152 -122 154 -124 2 -2 -262
-4 -587 -4 l-591 0 -1 475 c0 312 3 475 10 475 5 0 162 -125 347 -277z m890
-1006 c-16 -12 -140 -108 -275 -214 l-247 -192 -893 -1 -892 0 -118 93 c-64
51 -186 146 -269 211 -84 65 -153 120 -153 122 0 2 647 4 1438 3 l1437 0 -28
-22z m-2709 -485 c83 -68 152 -126 152 -131 0 -4 -48 -39 -107 -76 -169 -108
-907 -592 -1017 -667 -55 -37 -101 -66 -103 -64 -2 1 14 41 36 87 21 46 103
226 181 399 176 390 342 753 365 801 l18 37 161 -132 c88 -72 230 -187 314
-254z m3102 379 c0 -5 51 -121 114 -258 373 -811 485 -1057 482 -1060 -2 -2
-232 143 -512 323 -280 180 -561 361 -624 401 -63 41 -116 78 -118 83 -2 4 64
60 145 124 81 63 227 178 323 255 96 77 178 140 183 140 4 1 7 -3 7 -8z
m-3159 -1043 c-10 -18 -83 -185 -162 -370 l-143 -338 -387 0 c-213 0 -394 -3
-403 -6 -9 -3 -16 -2 -16 2 0 9 115 87 503 340 108 71 291 190 405 266 114 75
210 137 214 137 4 1 -1 -14 -11 -31z m2949 -118 c273 -180 763 -501 835 -546
35 -23 63 -43 61 -45 -3 -2 -189 -3 -415 -1 -287 2 -411 6 -411 13 0 10 -186
459 -264 636 -20 45 -36 84 -36 88 0 4 12 -1 28 -12 15 -10 106 -70 202 -133z"></path>
</g>
</svg>