<?xml version="1.0" encoding="UTF-8"?>
<svg id="bobo" xmlns="http://www.w3.org/2000/svg" viewBox="0 0 443.79 648">
  <polygon id="eye_right" points="152.96 188.08 155.56 158.42 131.11 141.25 104.05 154 101.45 183.66 125.91 200.83 152.96 188.08" fill="none"/>
  <polygon id="eye_left" points="285.73 204.47 290.41 171.69 264.4 151.14 233.44 163.37 228.76 196.14 254.77 216.69 285.73 204.47" fill="none"/>
  <path id="body" d="M443.79,281.21l-10.15,250.25-221.9,116.54L0,514.03l10.15-250.25,57.49-30.18-45.78-81.16L111.34,0l28.62.26,13.27,70.76,92.87,32.52,66.86-57.49,61.91,109.52-35.12,59.83,104.05,65.81ZM285.63,204.47l4.68-32.78-26.01-20.55-30.96,12.23-4.68,32.78,26.01,20.55,30.96-12.23ZM152.96,188.08l2.6-29.66-24.45-17.17-27.05,12.75-2.6,29.66,24.45,17.17,27.05-12.75Z"/>
</svg>