<?xml version="1.0" encoding="UTF-8"?>
<svg id="fbbf0112-9f0c-4059-91ae-024eb0aa32cc" xmlns="http://www.w3.org/2000/svg" version="1.1" viewBox="0 0 1046 729.87">
  <!-- Generator: Adobe Illustrator 30.2.1, SVG Export Plug-In . SVG Version: 2.1.1 Build 1)  -->
  <defs>
    <style>
      .st0, .st1 {
        fill: #2196f3;
      }

      .st0, .st2 {
        isolation: isolate;
      }

      .st0, .st2, .st3 {
        opacity: .1;
      }

      .st4 {
        fill: #e6e8ec;
      }

      .st5 {
        fill: #fbbebe;
      }

      .st6 {
        fill: #3a3768;
      }

      .st7 {
        fill: #3f3d56;
      }

      .st8 {
        fill: #f2f2f2;
      }

      .st9 {
        fill: #e91e63;
      }

      .st10 {
        fill: #ff6f61;
      }
    </style>
  </defs>
  <path class="st0" d="M417.15,93.3C337.04,16.95,215.89,3.31,120.81,59.93c94.98,34,199.78,35.25,296.34,33.37Z"/>
  <path class="st0" d="M967.64,645.48l-103.72-179.65c-.9-1.58-2.92-2.13-4.5-1.23-.51.29-.94.72-1.23,1.23l-103.72,179.65c-.94,1.56-.43,3.59,1.13,4.53.52.31,1.12.48,1.73.47h30.94c1.83,0,3.3,1.48,3.31,3.31v38.34c0,1.82,1.48,3.3,3.3,3.31h40.37c1.83,0,3.31-1.48,3.31-3.31v-18.53c0-1.82,1.48-3.3,3.3-3.3h38.38c1.82,0,3.3,1.48,3.31,3.3v18.53c0,1.83,1.48,3.31,3.31,3.31h40.36c1.83,0,3.31-1.48,3.31-3.31v-38.38c0-1.83,1.48-3.31,3.31-3.31h30.94c1.83,0,3.31-1.49,3.3-3.32,0-.58-.15-1.14-.44-1.64ZM823,665.36c-.61.63-1.46.99-2.34,1h-14.53c-1.83,0-3.31-1.49-3.31-3.31s1.48-3.3,3.31-3.31h14.56c1.83,0,3.31,1.48,3.31,3.31,0,.88-.35,1.72-.97,2.34l-.03-.03h0ZM918.28,665.36c-.61.63-1.46.99-2.34,1h-14.52c-1.83,0-3.31-1.49-3.31-3.31s1.48-3.3,3.31-3.31h14.58c1.83,0,3.31,1.48,3.31,3.31,0,.88-.35,1.72-.97,2.34l-.06-.03Z"/>
  <path class="st0" d="M326.55,647.06l-103.72-179.65c-.92-1.58-2.94-2.12-4.52-1.21-.5.29-.92.71-1.21,1.21l-89.59,155.17c11.19,14.11,23.75,27.07,37.49,38.71h14.6c1.83,0,3.31,1.49,3.31,3.31s-1.48,3.3-3.31,3.31h-6.16c7.54,5.67,15.58,10.67,24,14.93v-7.65c0-1.83,1.48-3.31,3.31-3.31h38.38c1.82,0,3.3,1.49,3.3,3.31v18.52c0,.48.1.96.31,1.39.54,1.17,1.71,1.92,3,1.92h40.37c1.04,0,2.02-.49,2.63-1.33.44-.57.68-1.28.67-2v-38.35c0-1.83,1.48-3.31,3.31-3.31h30.94c1.83.01,3.32-1.46,3.34-3.28,0-.59-.15-1.17-.45-1.69ZM258,662.26c.61-.63,1.46-.99,2.34-1h14.56c1.83,0,3.31,1.49,3.31,3.31s-1.48,3.3-3.31,3.31h-14.57c-1.83,0-3.31-1.48-3.31-3.31,0-.88.35-1.72.97-2.34v.03h.01ZM192.85,595.78c-1.83,0-3.31-1.48-3.31-3.31v-25.14c0-1.83,1.48-3.31,3.31-3.31h54.25c1.82,0,3.3,1.49,3.3,3.31v25.14c0,1.82-1.48,3.3-3.3,3.31h-54.25Z"/>
  <path class="st0" d="M736.53,324.34h-128.35v-27.76c0-3.67-2.97-6.64-6.64-6.64h-37.69v-29.57c0-2.31-1.87-4.18-4.18-4.18h-48.55c-2.31,0-4.18,1.87-4.18,4.18v29.56h-44.31c-3.67,0-6.64,2.97-6.64,6.64h0v27.76h-122.39c-.74,0-1.34.61-1.34,1.35v368.53c0,.74.6,1.34,1.34,1.35h81.34c.75,0,1.35-.6,1.35-1.35v-49.58c0-.74.61-1.34,1.35-1.35h34.36c.74,0,1.34.61,1.35,1.35v49.58c0,.74.6,1.34,1.34,1.35h160.75c.74,0,1.34-.61,1.35-1.35v-49.58c0-.74.6-1.34,1.34-1.35h34.36c.75,0,1.35.6,1.35,1.35v49.58c0,.74.61,1.34,1.35,1.35h81.34c.74,0,1.34-.61,1.35-1.35v-368.52c0-.74-.61-1.34-1.35-1.35h0ZM401.73,626.06c0,.74-.6,1.34-1.34,1.34h-50.24c-.74,0-1.34-.59-1.35-1.33h0v-17.14c0-.75.6-1.35,1.35-1.35h50.24c.74,0,1.34.61,1.34,1.35v17.13ZM401.73,581.72c0,.74-.59,1.34-1.33,1.35h-50.25c-.74,0-1.34-.59-1.35-1.33v-17.17c0-.74.59-1.34,1.33-1.35h50.26c.74,0,1.34.6,1.34,1.34h0v17.16h0ZM401.73,537.39c0,.74-.6,1.34-1.34,1.35h-50.24c-.75,0-1.35-.6-1.35-1.35v-17.16c0-.75.6-1.35,1.35-1.35h50.24c.74,0,1.34.61,1.34,1.35v17.16ZM401.73,493.05c0,.74-.59,1.34-1.33,1.35h-50.25c-.74,0-1.34-.59-1.35-1.33v-17.14c0-.74.59-1.34,1.33-1.35h50.26c.74,0,1.34.6,1.34,1.34h0v17.13h0ZM401.73,448.72c0,.74-.6,1.34-1.34,1.35h-50.24c-.75,0-1.35-.6-1.35-1.35v-17.16c0-.74.6-1.34,1.34-1.34h50.25c.74,0,1.34.6,1.34,1.34h0v17.16ZM401.73,404.39c0,.74-.6,1.34-1.34,1.34h-50.24c-.74,0-1.34-.59-1.35-1.33h0v-17.17c0-.75.6-1.35,1.35-1.35h50.24c.74,0,1.34.61,1.34,1.35v17.16ZM401.73,360.05c0,.74-.59,1.34-1.33,1.35h-50.25c-.74,0-1.34-.59-1.35-1.33v-17.14c0-.74.59-1.34,1.33-1.35h50.26c.74,0,1.34.6,1.34,1.34h0v17.13h0ZM520.84,626.05c0,.74-.6,1.34-1.34,1.34h-50.25c-.74,0-1.34-.6-1.35-1.34v-17.12c0-.74.61-1.34,1.35-1.35h50.24c.75,0,1.35.6,1.35,1.35v17.12h0ZM520.84,581.71c0,.74-.59,1.34-1.33,1.35h-50.26c-.75,0-1.35-.6-1.35-1.35v-17.14c0-.75.6-1.35,1.35-1.35h50.24c.74,0,1.34.59,1.35,1.33v17.16h0ZM520.84,537.38c0,.75-.6,1.35-1.35,1.35h-50.24c-.74,0-1.34-.61-1.35-1.35v-17.15c0-.74.61-1.34,1.35-1.35h50.24c.75,0,1.35.6,1.35,1.35v17.15ZM520.84,493.04c0,.74-.59,1.34-1.33,1.35h-50.26c-.75,0-1.35-.6-1.35-1.35v-17.11c0-.75.6-1.35,1.35-1.35h50.24c.74,0,1.34.59,1.35,1.33v17.13h0ZM520.84,448.71c0,.75-.6,1.35-1.35,1.35h-50.24c-.74,0-1.34-.61-1.35-1.35v-17.15c0-.74.61-1.34,1.35-1.34h50.24c.74,0,1.34.59,1.35,1.33h0v17.16ZM520.84,404.38c0,.74-.6,1.34-1.34,1.34h-50.25c-.74,0-1.34-.6-1.35-1.34v-17.15c0-.74.61-1.34,1.35-1.35h50.24c.75,0,1.35.6,1.35,1.35v17.15h0ZM520.84,360.04c0,.74-.59,1.34-1.33,1.35h-50.26c-.75,0-1.35-.6-1.35-1.35v-17.11c0-.75.6-1.35,1.35-1.35h50.24c.74,0,1.34.59,1.35,1.33v17.13h0ZM602.23,626.04c0,.74-.6,1.34-1.34,1.34h-50.25c-.74,0-1.34-.6-1.35-1.34v-17.11c0-.74.61-1.34,1.35-1.35h50.24c.75,0,1.35.6,1.35,1.35v17.11h0ZM602.23,581.7c0,.74-.59,1.34-1.33,1.35h-50.26c-.75,0-1.35-.6-1.35-1.35v-17.13c0-.75.6-1.35,1.35-1.35h50.24c.74,0,1.34.59,1.35,1.33v17.15h0ZM602.23,537.37c0,.75-.6,1.35-1.35,1.35h-50.24c-.74,0-1.34-.61-1.35-1.35v-17.14c0-.74.61-1.34,1.35-1.35h50.24c.75,0,1.35.6,1.35,1.35v17.14ZM602.23,493.03c0,.74-.59,1.34-1.33,1.35h-50.26c-.75,0-1.35-.6-1.35-1.35v-17.1c0-.75.6-1.35,1.35-1.35h50.24c.74,0,1.34.59,1.35,1.33v17.12h0ZM602.23,448.7c0,.75-.6,1.35-1.35,1.35h-50.24c-.74,0-1.34-.61-1.35-1.35v-17.14c0-.74.61-1.34,1.35-1.34h50.24c.74,0,1.34.59,1.35,1.33h0v17.15ZM602.23,404.37c0,.74-.6,1.34-1.34,1.34h-50.25c-.74,0-1.34-.6-1.35-1.34v-17.14c0-.74.61-1.34,1.35-1.35h50.24c.75,0,1.35.6,1.35,1.35v17.14h0ZM602.23,360.03c0,.74-.59,1.34-1.33,1.35h-50.26c-.75,0-1.35-.6-1.35-1.35v-17.1c0-.75.6-1.35,1.35-1.35h50.24c.74,0,1.34.59,1.35,1.33v17.12h0ZM721.34,626.03c0,.74-.61,1.34-1.35,1.34h-50.24c-.74,0-1.34-.59-1.35-1.33h0v-17.11c0-.75.6-1.35,1.35-1.35h50.25c.74,0,1.34.61,1.35,1.35v17.1h-.01ZM721.34,581.69c0,.75-.6,1.35-1.35,1.35h-50.24c-.74,0-1.34-.59-1.35-1.33v-17.14c0-.74.59-1.34,1.33-1.35h50.27c.75,0,1.35.6,1.35,1.35v17.12h-.01ZM721.34,537.36c0,.74-.61,1.34-1.35,1.35h-50.24c-.75,0-1.35-.6-1.35-1.35v-17.13c0-.75.6-1.35,1.35-1.35h50.25c.74,0,1.34.61,1.35,1.35v17.13h-.01ZM721.34,493.02c0,.75-.6,1.35-1.35,1.35h-50.24c-.74,0-1.34-.59-1.35-1.33v-17.11c0-.74.59-1.34,1.33-1.35h50.27c.75,0,1.35.6,1.35,1.35v17.09h-.01ZM721.34,448.69c0,.74-.61,1.34-1.35,1.35h-50.24c-.75,0-1.35-.6-1.35-1.35v-17.13c0-.74.6-1.34,1.34-1.34h50.26c.74,0,1.34.6,1.35,1.34v17.13h-.01ZM721.34,404.36c.01.75-.58,1.36-1.33,1.37h-50.26c-.74,0-1.34-.59-1.35-1.33h0v-17.17c0-.75.6-1.35,1.35-1.35h50.25c.74,0,1.34.61,1.35,1.35v17.13h0ZM721.34,360.02c0,.75-.6,1.35-1.35,1.35h-50.24c-.74,0-1.34-.59-1.35-1.33v-17.11c0-.74.59-1.34,1.33-1.35h50.27c.75,0,1.35.6,1.35,1.35v17.09h-.01Z"/>
  <path class="st0" d="M371,224.46c-5.65-1.08-11.49-.44-16.77,1.82-6.44,2.87-13.8,2.85-20.23-.05-7.58-3.32-16.24-3.15-23.68.47-2.1,1.11-4.44,1.69-6.82,1.7-9.6,0-17.59-9.67-19.25-22.43,1.92-1.4,3.55-3.15,4.8-5.17,5.63-9.07,14.35-14.9,24.14-14.9s18.4,5.76,24,14.73c3.42,5.51,9.47,8.84,15.95,8.76h.25c7.72,0,14.34,6.13,17.61,15.07h0Z"/>
  <path class="st0" d="M400.2,184.41l-15.52,9.84,9.42-17.13c-2.67-2.13-5.97-3.31-9.39-3.35h-.25c-1.08.02-2.16-.06-3.22-.24l-5.24,3.34,2.26-4.1c-3.73-1.3-6.95-3.75-9.2-7l-9.42,6,5.93-10.84c-5.51-6.61-12.93-10.66-21.09-10.66-9.79,0-18.51,5.82-24.14,14.89-3.39,5.54-9.51,8.83-16,8.61h-.53c-10.81,0-19.57,12.25-19.57,27.37s8.76,27.37,19.57,27.37c2.38,0,4.72-.59,6.82-1.71,7.44-3.62,16.1-3.79,23.68-.46,6.41,2.86,13.73,2.86,20.14,0,7.52-3.27,16.09-3.11,23.48.45,2.08,1.09,4.39,1.66,6.74,1.67,10.81,0,19.57-12.26,19.57-27.37.07-5.81-1.32-11.55-4.04-16.68h0Z"/>
  <path class="st0" d="M832,406.93c-3.95-.75-8.04-.31-11.74,1.27-4.49,2.01-9.61,2.01-14.1,0-5.31-2.33-11.37-2.21-16.58.33-1.47.78-3.11,1.18-4.77,1.19-6.72,0-12.31-6.77-13.47-15.7,1.34-.98,2.48-2.21,3.36-3.62,3.94-6.35,10-10.43,16.89-10.43s12.89,4,16.83,10.31c2.39,3.86,6.62,6.18,11.16,6.13h.18c5.3-.02,9.93,4.27,12.24,10.52h0Z"/>
  <path class="st0" d="M852.42,378.93l-10.86,6.89,6.59-12c-1.87-1.49-4.18-2.31-6.57-2.34h-.17c-.75,0-1.51-.05-2.25-.17l-3.69,2.33,1.58-2.86c-2.61-.92-4.86-2.63-6.44-4.89l-6.61,4.16,4.16-7.57c-3.85-4.63-9-7.47-14.76-7.47-6.85,0-13,4.08-16.9,10.43-2.38,3.86-6.64,6.15-11.17,6h-.33c-7.56,0-13.7,8.57-13.7,19.15s6.14,19.16,13.7,19.16c1.66,0,3.3-.41,4.77-1.19,5.21-2.54,11.27-2.66,16.58-.32,4.49,1.99,9.61,1.99,14.1,0,5.26-2.29,11.26-2.17,16.43.32,1.46.76,3.08,1.15,4.72,1.16,7.57,0,13.7-8.57,13.7-19.16.02-4.06-.97-8.05-2.88-11.63h0Z"/>
  <path class="st0" d="M238.62,342.93c3.95-.75,8.04-.31,11.74,1.27,4.48,2.01,9.61,2.01,14.09,0,5.31-2.33,11.37-2.21,16.58.33,1.47.78,3.11,1.18,4.77,1.19,6.72,0,12.32-6.77,13.48-15.7-1.34-.98-2.48-2.21-3.36-3.62-3.92-6.37-10.05-10.47-16.92-10.47s-12.88,4-16.82,10.31c-2.4,3.86-6.63,6.2-11.18,6.15h-.17c-5.32,0-9.96,4.29-12.21,10.54h0Z"/>
  <path class="st0" d="M218.14,314.93l10.86,6.86-6.6-12c1.87-1.49,4.18-2.31,6.57-2.34h.18c.75,0,1.51-.05,2.25-.17l3.68,2.33-1.58-2.86c2.61-.91,4.86-2.63,6.45-4.89l6.59,4.18-4.17-7.57c3.86-4.63,9.05-7.47,14.77-7.47,6.85,0,13,4.08,16.9,10.43,2.37,3.86,6.64,6.15,11.17,6h.36c7.57,0,13.7,8.57,13.7,19.15s-6.13,19.16-13.7,19.16c-1.66,0-3.3-.42-4.77-1.19-5.21-2.54-11.27-2.66-16.58-.32-4.49,1.99-9.6,1.99-14.09,0-5.27-2.29-11.27-2.17-16.44.32-1.46.76-3.08,1.15-4.72,1.16-7.56,0-13.7-8.57-13.7-19.16-.02-4.05.96-8.05,2.87-11.62h0Z"/>
  <path class="st7" d="M218.68,700.06c13.54,8.6,33.05-.1,46.68,8.37,3.52,2.18,6.36,5.39,10,7.37,4.37,2.39,9.51,2.82,14.48,3,41.62,1.61,83.94-10,124.52-.62,11.35,2.62,22.45,6.88,34.08,7.5,20.09,1.09,39.34-8.71,59.45-9.25,30.5-.82,60.47,19.59,89.9,11.54,9.68-2.65,18.56-8.3,28.55-9.25,11.13-1,21.83,3.85,32.65,6.68,38.37,10,78.33-6.2,118-7.41,25.87-.79,51.49,4.85,77.34,6.15,18.38.92,36.8-.37,55.16-1.65,7-.49,14.33-1.09,20.19-4.93s9.46-12.09,5.84-18.09l-716.84.59h0Z"/>
  <path class="st2" d="M218.68,700.06c13.54,8.6,33.05-.1,46.68,8.37,3.52,2.18,6.36,5.39,10,7.37,4.37,2.39,9.51,2.82,14.48,3,41.62,1.61,83.94-10,124.52-.62,11.35,2.62,22.45,6.88,34.08,7.5,20.09,1.09,39.34-8.71,59.45-9.25,30.5-.82,60.47,19.59,89.9,11.54,9.68-2.65,18.56-8.3,28.55-9.25,11.13-1,21.83,3.85,32.65,6.68,38.37,10,78.33-6.2,118-7.41,25.87-.79,51.49,4.85,77.34,6.15,18.38.92,36.8-.37,55.16-1.65,7-.49,14.33-1.09,20.19-4.93s9.46-12.09,5.84-18.09l-716.84.59h0Z"/>
  <path class="st7" d="M218.68,695.06c13.54,8.6,33.05-.1,46.68,8.37,3.52,2.18,6.36,5.39,10,7.37,4.37,2.39,9.51,2.82,14.48,3,41.62,1.61,83.94-10,124.52-.62,11.35,2.62,22.45,6.88,34.08,7.5,20.09,1.09,39.34-8.71,59.45-9.25,30.5-.82,60.47,19.59,89.9,11.54,9.68-2.65,18.56-8.3,28.55-9.25,11.13-1,21.83,3.85,32.65,6.68,38.37,10,78.33-6.2,118-7.41,25.87-.79,51.49,4.85,77.34,6.15,18.38.92,36.8-.37,55.16-1.65,7-.49,14.33-1.09,20.19-4.93s9.46-12.09,5.84-18.09l-716.84.59h0Z"/>
  <g class="st3">
    <path class="st7" d="M122.35,571.86c.04,4.34-1.07,8.61-3.23,12.38,4.31,7.69,4.31,17.07,0,24.76,1.1,1.87,1.92,3.89,2.44,6-10.92-14.39-20.96-29.41-30.09-45h0c.22-3.72,1.3-7.33,3.16-10.56-2.16-3.77-3.27-8.04-3.23-12.38-.01-2.93.48-5.85,1.46-8.61.47-1.31,1.06-2.57,1.77-3.77,2.82-4.79,7.26-7.88,12.24-7.88s9.43,3.09,12.25,7.88c.69,1.16,1.27,2.38,1.73,3.65,1,2.8,1.51,5.76,1.5,8.73.04,4.34-1.07,8.61-3.23,12.38,2.16,3.78,3.28,8.07,3.23,12.42Z"/>
    <ellipse class="st7" cx="106.87" cy="522.35" rx="15.47" ry="20.26"/>
    <ellipse class="st7" cx="106.87" cy="497.59" rx="15.47" ry="20.26"/>
    <path class="st1" d="M180.67,373.93c.03,16.63-5.57,32.78-15.87,45.83,25.31,32.18,19.74,78.79-12.44,104.09-9.23,7.26-20.04,12.22-31.56,14.48-1.78.36-3.59.64-5.42.86-5.64.68-11.35.71-17,.09-1.88-.2-3.74-.48-5.57-.83-8.08-1.49-15.86-4.34-23-8.41-13.31-27.19-24.93-55.17-34.81-83.79,2.6-9.62,7.12-18.62,13.29-26.45-15.5-19.69-20.01-45.87-12-69.61l56.28,18.89-52.78-27.42c2.32-4.8,5.16-9.33,8.45-13.52-25.32-32.17-19.76-78.78,12.42-104.1,32.17-25.32,78.78-19.76,104.1,12.42,2.18,2.77,4.15,5.68,5.92,8.73l-54.41,40,59-30.6c7.62,18.94,7.11,40.18-1.42,58.73l-44-.33,40.66,6.68c-1.73,2.96-3.65,5.79-5.77,8.48,10.32,13.03,15.93,29.16,15.94,45.78h-.01Z"/>
    <path class="st2" d="M180.67,465.63c0,35.42-25.07,65.89-59.82,72.74-1.78.36-3.59.64-5.42.86-5.64.68-11.35.71-17,.09-1.88-.2-3.74-.48-5.57-.83-8.08-1.49-15.86-4.34-23-8.41-13.33-27.2-24.97-55.2-34.86-83.83,2.6-9.62,7.12-18.62,13.29-26.45-10.31-13.06-15.9-29.23-15.87-45.87,0-8.32,142.32,33.22,132.38,45.83,10.31,13.06,15.9,29.23,15.87,45.87Z"/>
  </g>
  <g class="st3">
    <path class="st7" d="M1014.9,552.58c-2.9,9.26-6,18.45-9.18,27.43-.88-2.65-1.33-5.42-1.32-8.21,0-8.93,4.4-16.51,10.5-19.22Z"/>
    <path class="st1" d="M1046,393.02c0,17.55-3.54,45.28-10,77-5.66,27.86-12.72,55.41-21.15,82.56-2.9,9.26-6,18.45-9.18,27.43-3.65,10.2-7.5,20.12-11.53,29.61-38.58-14.16-58.37-56.92-44.21-95.49,2.68-7.31,6.5-14.15,11.3-20.28-15.5-19.75-20.01-45.97-12-69.76l56.28,18.93-52.78-27.48c2.32-4.81,5.16-9.35,8.45-13.55-25.36-32.33-19.7-79.1,12.63-104.46,5.05-3.96,10.6-7.25,16.49-9.79,22.72,15.5,39.82,37.92,48.75,63.93l-9.75,7.26,10.46-5.43c3.51,10.78,5.56,21.98,6.09,33.31h-2.94l3,.49c.09,1.89.09,3.79.09,5.72h0Z"/>
    <path class="st2" d="M1036.05,470.02c-5.66,27.86-12.72,55.41-21.15,82.56-2.9,9.26-6,18.45-9.18,27.43-3.65,10.2-7.5,20.12-11.53,29.61-38.58-14.16-58.37-56.92-44.21-95.49,2.68-7.31,6.5-14.15,11.3-20.28-10.3-13.09-15.88-29.27-15.86-45.92,0-5,51.72,8.1,90.63,22.09h0Z"/>
  </g>
  <path class="st0" d="M1045.87,387.28v-.47c-.53-11.33-2.58-22.53-6.09-33.31-.2-.61-.4-1.23-.61-1.83-8.93-26.01-26.03-48.43-48.75-63.93-52.68-35.89-123.81-27.1-166.16,20.54-2.14-12.14-5.53-24.03-10.11-35.47-33.37,4.22-67.04,5.47-100.63,3.75,20.58,9.49,41.92,17.24,63.8,23.17l-.78,2.9c-24.55-6.67-48.43-15.61-71.32-26.7l-6.91-3.35,7.66.5c35.68,2.34,71.51,1.31,107-3.07-7.68-18.31-18.33-35.24-31.52-50.08-57.56-5.8-114.67-17.88-168-41.83l1.23-2.73c51.91,23.33,107.54,35.32,163.7,41.22-67.72-72.6-181.47-76.55-254.07-8.83-12.34,11.51-23,24.71-31.66,39.2-5.32-51.58-26.75-100.18-61.24-138.9-30.71,12.27-62.42,21.88-94.77,28.71-48.66,10.34-98.46,14.31-148.14,11.79,20.58,9.49,41.92,17.24,63.8,23.17l-.78,2.9c-24.54-6.67-48.41-15.61-71.3-26.7l-6.91-3.35,7.66.5c84.68,5.56,169.54-7.88,248.36-39.35-2.97-3.25-6.02-6.42-9.16-9.52-98.42,2-205.61,1-302.65-34.33C44.4,107.01-.08,186.83,0,272.75c0,46.46,12.77,110.35,35,174.45,9.91,28.69,21.56,56.74,34.91,84,6.79,13.8,14,27.21,21.57,40.05h0c9.13,15.58,19.18,30.61,30.09,45,1.96,2.58,3.94,5.11,5.95,7.6,11.19,14.16,23.74,27.18,37.48,38.87h0c2.78,2.32,5.58,4.53,8.39,6.63,7.54,5.7,15.57,10.72,24,15,14.67,7.35,29.81,11.66,45.3,12.28,1.24.05,2.49.08,3.73.08v.51h672v-.51h.5c3.87-.01,7.71-.69,11.36-2,23.76-8.43,45.64-42.28,63.83-85.06,4-9.49,7.88-19.41,11.53-29.61,3.22-9,6.28-18.17,9.18-27.43,8.43-27.15,15.49-54.7,21.15-82.56,6.41-31.72,10-59.45,10-77,.03-1.96.03-3.86-.1-5.77h0Z"/>
  <path class="st9" d="M334.06,667.79l19.14-11.26c-2.59-4.42-5.9-8.38-9.79-11.71l-36.11,11.23,28.3-16.63c-22.28-12.21-50.24-4.04-62.44,18.24-3.71,6.78-5.66,14.38-5.66,22.11,0,25.4,20.59,26.28,46,26.28s46-.88,46-26.28c0-6.43-1.34-12.79-3.95-18.67l-21.49,6.69h0Z"/>
  <path class="st2" d="M338.93,692.48c-2.04-2.04-4.31-3.83-6.78-5.32-3.48-2.31-7.07-4.67-11.17-5.45-3.6-.69-7.31-.11-11-.32-6.37-.39-12.36-3.13-16.81-7.7-2.61-2.7-4.67-6-7.81-8.09-3.39-2.22-7.69-2.7-11.71-2.15-1.17.17-2.32.4-3.46.71-1.81,5.01-2.73,10.29-2.72,15.61,0,25.4,20.59,26.28,46,26.28,12.33,0,23.52-.21,31.78-3.32l-1.38-2.58c-1.32-2.75-2.98-5.33-4.94-7.67h0Z"/>
  <circle class="st7" cx="547.34" cy="185.77" r="35.75"/>
  <path class="st7" d="M526.6,463.87c3.69,25.89-.81,52.29-7.82,77.48-1.31,4.69-2.72,9.42-5.17,13.63s-5.86,7.83-8.74,11.79c-6,8.26-9.52,18-12.81,27.64-9.07,26.67-16.69,53.82-22.82,81.32-.37,1.13-.37,2.34,0,3.47.87,2,3.51,2.26,5.68,2.25l28.06-.15c1-1.92-.85-4-2-5.84-4-6.22-.16-14.3,3.37-20.81,8.58-15.81,15.22-32.6,19.78-50,1.92-7.33,3.48-14.82,6.6-21.73,3.77-8.38,9.68-15.59,14.48-23.43,5.58-9.11,9.65-19,13.69-28.93,5.64-13.78,11.33-27.73,13.55-42.45,2.09-13.82,1.06-27.9-.3-41.81.22-1.44-.77-2.79-2.21-3.01-.28-.04-.57-.04-.85,0l-37.65-1.94c-7.76-.4-9.6-2.1-8.42,5.52.82,5.69,2.76,11.23,3.58,16.99h0Z"/>
  <path class="st2" d="M526.6,463.87c3.69,25.89-.81,52.29-7.82,77.48-1.31,4.69-2.72,9.42-5.17,13.63s-5.86,7.83-8.74,11.79c-6,8.26-9.52,18-12.81,27.64-9.07,26.67-16.69,53.82-22.82,81.32-.37,1.13-.37,2.34,0,3.47.87,2,3.51,2.26,5.68,2.25l28.06-.15c1-1.92-.85-4-2-5.84-4-6.22-.16-14.3,3.37-20.81,8.58-15.81,15.22-32.6,19.78-50,1.92-7.33,3.48-14.82,6.6-21.73,3.77-8.38,9.68-15.59,14.48-23.43,5.58-9.11,9.65-19,13.69-28.93,5.64-13.78,11.33-27.73,13.55-42.45,2.09-13.82,1.06-27.9-.3-41.81.22-1.44-.77-2.79-2.21-3.01-.28-.04-.57-.04-.85,0l-37.65-1.94c-7.76-.4-9.6-2.1-8.42,5.52.82,5.69,2.76,11.23,3.58,16.99h0Z"/>
  <path class="st7" d="M534,400.93c-7.65,11-15.67,23.66-13.13,36.83,1.93,10,9.55,17.75,16.74,25,28.74,28.86,57,60.92,66.78,100.47,2.52,10.22,3.74,20.71,5.91,31,3.94,18.7,11,36.58,18,54.35l18.76,47.35c11.92.29,22.75-6.9,27.1-18-2.46-.19-5.67-2.57-7.11-4.57-8-11.07-9.64-25.31-11.69-38.81-2.27-14.92-5.3-29.72-8.34-44.51l-13.44-65.44c-1.55-7.55-3.1-15.11-5.12-22.55-7.82-28.82-22.64-56-24.93-85.8-.34-4.38-.55-9.19-3.52-12.44-3.12-3.43-8.24-4-12.87-4.27-18.73-1.2-34.89-3.03-53.14,1.39h0Z"/>
  <path class="st8" d="M483.47,675.06c-2.04-.48-4.12-.75-6.22-.8-4.07.14-7.84,2.2-10.16,5.55-1.17,1.87-2.09,3.89-2.73,6l-2.71,7.78c-.8,2.28-1.58,4.91-.39,7,.89,1.3,2.16,2.28,3.64,2.81,6.56,2.92,14,3.08,21.1,3.78,6.94.68,13.82,1.9,20.67,3.18,2.36.45,4.71.9,7.1,1.14,5.34.54,10.72,0,16.06-.48l5.51-.53c1.84-.08,3.67-.42,5.42-1,1.77-.6,3.21-1.9,4-3.59,1.36-3.37-1.56-7.36-5.13-8.06-1.45-.28-3-.15-4.42-.34-1.67-.29-3.29-.77-4.84-1.45-7-2.77-14.17-5.57-20.37-9.93-1.72-1.21-3.52-2.9-3.33-5,.18-.9.48-1.77.89-2.59.84-2.15.87-4.52.08-6.69-.34-.92-1-1.89-1.93-2-2.64-.32-2.32,3.53-2.71,5-.53,2-1.49,2.18-3.37,2-5.4-.49-10.8-.76-16.16-1.78h0Z"/>
  <path class="st8" d="M641.34,701.93c.05,3.91,1.39,7.69,3.82,10.75.74.91,1.67,1.66,2.72,2.19,1.58.65,3.29.92,5,.79,4.76-.1,9.46-1.06,13.89-2.81,1.56-.71,3.16-1.31,4.8-1.81,2.06-.42,4.14-.72,6.24-.9,8.27-1.19,15.53-6.07,23.52-8.54,2.39-.59,4.73-1.36,7-2.3,3.16-1.49,5.72-4,8.23-6.43,1.48-1.31,2.75-2.84,3.78-4.53,1.47-2.73,1.56-6,1.62-9.09.05-.48-.03-.97-.24-1.41-.23-.32-.54-.56-.9-.71-2.43-1.2-5.31-.6-8-.13-9.72,1.73-19.67,1.41-29.54,1.09-1.93.26-3.79-.8-4.54-2.59l-3.75-6c-1.07-1.72-2.77-3.69-4.71-3.1-1.55.47-2.18,2.37-2.12,4s.56,3.25.25,4.84c-.45,1.77-1.6,3.27-3.2,4.16-1.58.86-3.26,1.5-5,1.92-5.52,1.56-11.94,3.33-16.21,7.39-3.14,2.88-2.85,9.33-2.66,13.22h0Z"/>
  <path class="st5" d="M639.4,305.19c2.15-1.65,4-3.66,5.46-5.94,1.26-2.58,2.05-5.36,2.33-8.21l1.57-9.92c.87-5.47,1.89-11.26,5.54-15.43s10.92-5.66,14.63-1.54c1.62,1.79,2.26,4.25,2.66,6.64,2.31,14.43-2.03,29.14-11.82,40-4.49,4.92-10,8.83-14.75,13.48-4.14,4-7.73,8.59-11.55,12.94-9.24,10.51-19.82,19.75-31.47,27.5.14-7.44,1.09-15.42,0-22.81-.81-5.34-3-8.22,2.17-11.71,12-8.16,24.11-15.54,35.23-25h0Z"/>
  <path class="st5" d="M538.56,232.01c-.39,5.32-2.6,10.76-7,13.83,12.46,4.36,24.75,9.17,36.87,14.42-2.34-2.25-3.05-5.7-3.16-8.94-.31-8.47,2.62-16.8,6.9-24.1.68-.93,1.07-2.03,1.13-3.18-.14-2.36-2.94-3.45-5.24-4-7.85-1.9-15.86-3.07-23.92-3.47-3.45-.11-7.54-1.2-6.76,3.19.74,4.1,1.49,8.1,1.18,12.25h0Z"/>
  <circle class="st5" cx="562.66" cy="205.63" r="29.23"/>
  <path class="st10" d="M591.6,284.58c-1.02-2.19-2.26-4.28-3.71-6.22-5.3-7.61-10.74-15.21-17.54-21.51-5.15-4.59-10.73-8.69-16.65-12.23-3.2-2.19-6.71-3.88-10.42-5-2.2-.49-4.44-.79-6.69-.91l-7.59-.62c-.67-.09-1.34-.07-2,.06-2.06.52-3,3.08-2.56,5.15s2,3.75,3.38,5.32c.34,15.49-6.55,30.77-7.48,46.24-1.63,27.05,14.88,52.21,16.2,79.28.14,1.22,0,2.46-.38,3.63-.22.56-.55,1.07-.8,1.62-.78,1.7-.75,3.63-.89,5.5-.54,6.67-3.47,12.92-8.23,17.62,1.24,1.54,2.83,2.75,4.64,3.54,3.19,1.39,7,1.51,10.39,2.48,8.84,2.58,17.9,5.18,27.09,4.63,1.14-2.48,1.85-5.15,2.09-7.87,1.3-.81,2.8.92,3,2.44s-.09,3.29,1,4.39,2.47.93,3.8.76c5.61-.71,11-2.6,16.5-3.87s11.38-1.88,16.73-.06c1.08-1.37.62-3.4-.26-4.9s-2.13-2.82-2.63-4.49c-.25-.96-.36-1.96-.32-2.95,0-8.55,1.76-17.19.09-25.58-.49-2.46-1.27-4.86-1.77-7.33-1-4.79-.85-9.73-.72-14.62s-.46-10.18-.56-15.14c0-2.05-.14-4.1-.4-6.13-.34-2.13-1-4.21-1.18-6.36-.54-5.46,1.66-10.88,1.33-16.36-.55-8.32-10.22-12.84-13.46-20.51h0Z"/>
  <path class="st5" d="M525.63,280.66c-7.08,18.78-10.54,38.7-14,58.48l-8,46.46c-2.27,13.13-4.55,26.34-4.46,39.66,0,3.74.24,7.55-.74,11.16-1.28,4.74-4.46,8.69-6.87,13-4.89,8.8-6.52,19.05-4.6,28.93.82,4.15,3.06,8.86,7.27,9.34,3.46.38,6.45-2.37,8.47-5.21,4.64-6.51,6.94-14.37,9-22.11,6.63-25.29,11.27-51.07,13.87-77.09.25-3.29.71-6.57,1.39-9.8.88-3.33,2.01-6.59,3.38-9.76,3.06-7.59,6.12-15.17,9.19-22.76,7.07-17.53,14.18-35.14,23.89-51.36-9.6-2.76-19.59-6-29.19-8.73-2.77-.82-5.74-.33-8.6-.21h0Z"/>
  <path class="st10" d="M542.27,294.93c-6.72-1.45-13.67-1-20.53-1.17-.97.07-1.94-.18-2.76-.72-1.39-1.19-.8-3.42-.1-5.11l3.32-8c.54-1.65,1.45-3.16,2.66-4.42,1.69-1.5,4.07-1.87,6.31-2.14,7.29-.84,14.79-1.12,21.86.85s13.72,6.45,16.88,13.08c1.32,2.76,1.93,6.24.18,8.75-2.6,3.73-8.43,7.9-12.78,5.86-5.21-2.47-9.2-5.74-15.04-6.98h0Z"/>
  <path class="st7" d="M578,160.23c-5.78-.06-11.44,1.57-16.3,4.7-9.36-8.87-22.77-12.01-35.1-8.22-1.94-11.12-12.52-18.56-23.63-16.62s-18.56,12.52-16.62,23.63c1.48,8.5,8.15,15.16,16.65,16.63-5.55,18.95,5.32,38.81,24.27,44.36,18.95,5.55,38.81-5.32,44.35-24.27,2.11.43,4.26.65,6.41.65,14.1,0,25.54-9.15,25.54-20.43s-11.49-20.43-25.57-20.43h0Z"/>
  <path class="st2" d="M583.09,190.87c-2.15,0-4.3-.21-6.41-.65-1,3.66-2.58,7.13-4.68,10.29,1.98.38,3.99.58,6,.58,13.18,0,24-8,25.39-18.24-4.69,4.88-12.04,8.02-20.3,8.02h0Z"/>
  <path class="st2" d="M542.23,216.41c-19.77-.03-35.78-16.08-35.75-35.85,0-3.53.53-7.05,1.57-10.43-9.77-1.72-16.89-10.2-16.89-20.12,0-1.23.11-2.45.33-3.66-7.66,8.28-7.17,21.21,1.12,28.87,2.88,2.67,6.48,4.45,10.34,5.13-5.75,18.89,4.9,38.86,23.79,44.61,18.75,5.71,38.6-4.74,44.5-23.43-6.71,9.35-17.51,14.89-29.01,14.88h0Z"/>
  <path class="st6" d="M672.57,276.21h0c.15.11.18.32.08.47l-2.82,3.96c-.11.15-.32.19-.47.08h0c-.15-.11-.18-.32-.08-.47l2.82-3.96c.11-.15.32-.19.47-.08Z"/>
  <path class="st6" d="M656.79,259.62h0c.09.06.11.18.04.27l-.84,1.17c-.06.09-.18.11-.27.04h0c-.09-.06-.11-.18-.04-.27l.84-1.17c.06-.09.18-.11.27-.04Z"/>
  <path class="st6" d="M654.85,262.35h0c.09.07.12.2.05.29l-1.6,2.24c-.07.09-.2.12-.29.05h0c-.09-.07-.12-.2-.05-.29l1.6-2.24c.07-.09.2-.12.29-.05Z"/>
  <path class="st6" d="M652.37,265.84h0c.09.06.11.19.05.28l-1.63,2.28c-.06.09-.19.11-.28.05h0c-.09-.06-.11-.19-.05-.28l1.63-2.28c.06-.09.19-.11.28-.05Z"/>
  <rect class="st6" x="634.28" y="270.48" width="45.69" height="22.48" rx="2.52" ry="2.52" transform="translate(46.11 652.99) rotate(-54.49)"/>
  <rect class="st2" x="634.28" y="270.48" width="45.69" height="22.48" rx="2.52" ry="2.52" transform="translate(46.11 652.99) rotate(-54.49)"/>
  <rect class="st6" x="633.35" y="268.62" width="45.69" height="22.48" rx="2.52" ry="2.52" transform="translate(47.24 651.46) rotate(-54.49)"/>
  <path class="st9" d="M675.28,266.93l-2.09-1.5-.18.25c-.46.64-1.35.79-2,.35l-6.68-4.77c-.66-.47-.81-1.39-.34-2.05l.18-.25-2-1.4c-.8-.57-1.91-.39-2.48.4h0l-23.08,32.35c-.57.8-.39,1.91.41,2.49l13.14,9.37c.8.57,1.91.39,2.48-.41h0l23.08-32.34c.57-.8.38-1.91-.43-2.48h-.01,0Z"/>
  <path class="st4" d="M667.16,261.31l2.04,1.45c.14.1.18.3.07.45h0c-.1.14-.3.18-.45.07l-2.04-1.45c-.14-.1-.18-.3-.07-.45h0c.1-.14.3-.18.45-.07Z"/>
  <circle class="st4" cx="669.9" cy="263.72" r=".36"/>
  <path class="st9" d="M670,13.93c-37,0-67,30-67,67s70.2,159.54,70.2,159.54c0,0,63.8-122.49,63.8-159.54s-30-67-67-67ZM670,125.61c-19.39,0-35.1-15.71-35.1-35.1s15.71-35.1,35.1-35.1,35.1,15.71,35.1,35.1h0c.02,19.38-15.67,35.11-35.05,35.13h-.05v-.03Z"/>
  <path class="st2" d="M670,13.93c-37,0-67,30-67,67s70.2,159.54,70.2,159.54c0,0,63.8-122.49,63.8-159.54s-30-67-67-67ZM670,125.61c-19.39,0-35.1-15.71-35.1-35.1s15.71-35.1,35.1-35.1,35.1,15.71,35.1,35.1h0c.02,19.38-15.67,35.11-35.05,35.13h-.05v-.03Z"/>
  <path class="st9" d="M670,0c-37,0-67,30-67,67h0c0,37,70.2,173.5,70.2,173.5,0,0,63.8-136.48,63.8-173.49.01-37-29.99-67.01-66.99-67.01h-.01ZM670,111.68c-19.39,0-35.1-15.71-35.1-35.1s15.71-35.1,35.1-35.1,35.1,15.71,35.1,35.1h0c0,19.39-15.71,35.1-35.1,35.1Z"/>
</svg>