<?xml version="1.0" encoding="UTF-8"?>
<svg id="lukasfelbinger" xmlns="http://www.w3.org/2000/svg" viewBox="0 0 549.67 648">
  <path id="logo" d="M98.86,646.17c-.26-11.45,4.94-15.35,15.87-15.35,19.51,0,37.2-6.5,43.44-26.53,17.95-55.41,34.34-111.34,52.03-169.61H.01c-.26-11.71,4.42-16.65,14.31-16.39,31.22.78,47.6-16.65,55.67-44.48,30.44-105.09,60.61-210.45,90.79-315.54,1.3-4.94,2.34-10.15,2.6-15.35.78-13.01-4.16-20.55-17.17-23.41-10.15-2.34-20.29-3.12-31.22-4.94-1.04-7.8-1.3-14.57,9.89-14.57,55.41.26,111.08.26,166.49.26,1.56.26,3.12.52,4.42,1.04.78,9.89-3.64,14.83-13.79,15.61-41.88,3.38-50.21,9.89-62.69,52.03-27.57,93.39-54.63,187.04-81.16,280.68-3.38,12.49-6.24,25.23-8.06,37.98-1.3,8.32,3.38,15.09,11.97,15.87,23.15,1.82,46.56,2.6,69.98,3.12,2.6,0,6.76-3.9,7.8-6.76,12.49-42.66,25.49-85.32,36.42-128.51,7.02-27.83-1.3-36.94-30.18-38.76-4.94-.26-10.15-1.56-15.09-2.08-.78-12.23,4.16-15.35,15.09-15.35,103.01.52,206.29.26,309.56.26,4.16,0,8.32.26,14.05.52-10.41,36.16-20.29,71.02-30.96,105.61-1.04,3.64-8.58,5.46-13.01,8.06l-3.12-2.6c.52-5.2,1.04-10.67,1.82-15.87,6.24-37.72-8.06-59.83-45.78-66.07-18.21-2.86-37.2-2.34-55.67-2.86-21.59-.52-43.18-1.04-65.03-.52-4.42,0-11.45,3.9-12.49,7.28-16.13,52.03-31.48,104.31-47.6,158.94h144.89c-1.56,5.98-2.6,9.62-3.12,13.27-1.3,10.41-6.5,13.79-17.43,13.79-39.8-.52-79.6.52-119.66.26-9.1,0-13.53,2.08-16.13,11.71-11.97,43.7-25.23,87.4-37.72,130.85-11.97,41.36-5.46,50.47,37.2,53.59,2.6.26,4.94.52,7.8,1.04.26,10.15-2.34,15.87-13.79,15.61-51.51-.78-103.01-.78-154.78-1.04-2.08-.26-4.16-.52-6.24-.78Z"/>
</svg>