<?xml version="1.0" standalone="no"?>
<!DOCTYPE svg PUBLIC "-//W3C//DTD SVG 20010904//EN"
 "http://www.w3.org/TR/2001/REC-SVG-20010904/DTD/svg10.dtd">
<svg version="1.0" xmlns="http://www.w3.org/2000/svg"
 width="331.000000pt" height="312.000000pt" viewBox="0 0 331.000000 312.000000"
 preserveAspectRatio="xMidYMid meet">

<g transform="translate(0.000000,312.000000) scale(0.100000,-0.100000)"
stroke="none">
<path d="M1520 3001 c-14 -5 -142 -58 -285 -118 -143 -61 -332 -141 -420 -178
-283 -118 -310 -131 -376 -167 -135 -76 -198 -159 -218 -289 -14 -90 -22 -767
-11 -923 17 -239 62 -410 157 -601 72 -144 94 -172 162 -204 l56 -26 330 0
c368 0 391 4 456 62 46 41 76 100 188 371 92 222 123 266 214 312 33 16 67 30
74 30 13 0 14 -65 12 -437 -3 -438 -3 -438 20 -497 14 -35 41 -76 66 -101 66
-67 84 -69 555 -63 444 6 433 4 496 67 69 68 69 66 71 476 2 247 -1 381 -8
403 -13 39 -40 52 -109 52 -51 0 -75 -14 -90 -55 -5 -12 -12 -177 -16 -367
l-7 -346 -121 -6 c-67 -3 -237 -9 -378 -12 l-258 -6 0 452 0 452 413 -3 414
-4 56 37 c37 25 64 53 79 80 22 41 22 53 22 293 -1 330 -13 372 -129 430 l-60
30 -425 -3 c-416 -3 -426 -3 -469 -25 -53 -27 -74 -53 -103 -132 -21 -56 -22
-74 -20 -281 l2 -221 -81 -7 c-103 -8 -136 -23 -205 -88 -114 -107 -164 -196
-264 -463 l-68 -180 -49 -6 c-26 -3 -170 -9 -319 -13 l-272 -7 -5 28 c-2 15
-23 73 -46 127 -112 266 -134 447 -122 1001 9 448 0 424 187 498 94 38 631
263 894 374 137 58 166 55 382 -45 253 -116 847 -369 949 -403 104 -35 156
-37 193 -8 23 18 26 27 26 84 0 60 -2 65 -32 88 -18 14 -130 64 -248 112 -118
48 -287 117 -375 155 -88 37 -250 106 -360 153 -261 111 -316 127 -419 126
-44 0 -92 -4 -106 -8z m1338 -1285 c1 -121 -2 -224 -7 -229 -15 -15 -189 -20
-483 -12 l-288 7 0 229 0 229 388 -2 387 -3 3 -219z"/>
<path d="M2191 1827 c-53 -65 -53 -199 0 -256 18 -20 29 -22 67 -18 24 3 48
11 53 18 12 20 11 226 -1 250 -8 15 -21 19 -59 19 -28 0 -53 -6 -60 -13z"/>
<path d="M2186 1157 c-27 -40 -39 -127 -33 -230 8 -125 19 -149 75 -161 39 -8
46 -7 67 15 23 23 24 31 27 189 4 200 0 210 -72 210 -40 0 -52 -4 -64 -23z"/>
<path d="M620 442 c-55 -7 -78 -23 -99 -72 -29 -66 -26 -91 12 -141 36 -48 75
-63 144 -53 57 7 89 46 98 119 8 58 -4 103 -32 126 -16 14 -86 26 -123 21z"/>
<path d="M1180 442 c-55 -7 -78 -23 -99 -72 -29 -66 -26 -91 12 -142 32 -42
35 -43 95 -46 50 -2 70 1 97 18 38 24 41 29 50 102 7 56 -8 106 -37 124 -17
10 -87 20 -118 16z"/>
</g>
</svg>
