<?xml version="1.0" encoding="UTF-8"?>
<svg id="logo" xmlns="http://www.w3.org/2000/svg" viewBox="0 0 656.31 655.2">
  <path id="logo-2" data-name="logo" d="M226.73,655.2c-17.22,0-31.23-14.01-31.23-31.23s14.01-31.23,31.23-31.23,31.23,14.01,31.23,31.23-14.01,31.23-31.23,31.23ZM97.99,655.19c-17.21,0-31.22-14-31.22-31.22s14-31.21,31.22-31.21,31.22,14,31.22,31.21-14,31.22-31.22,31.22ZM425.95,654.41l-.18-.02c-22.22-2.21-45.71-27.32-45.71-48.84v-205.33c-25.84.03-45.05,13.21-57.11,39.19-8.12,17.48-15.09,36.29-21.83,54.48-7.06,19.04-14.36,38.73-23.05,57.17l-.05.12-.06.11c-8.62,15.35-25.1,25.86-43.02,27.43-9.98.87-20.97,1.3-33.6,1.3-14.02,0-28.5-.52-42.51-1.03-13.95-.5-28.38-1.02-42.29-1.02-9.68,0-18.26.25-26.23.76l-.33.02-.33-.04c-20.9-2.53-36.59-13.69-45.38-32.26-10.5-22.19-19.12-47.1-27.46-71.18-4.78-13.81-9.73-28.09-14.87-41.35l-.22-.56-.02-.6C-.4,380.67-.08,327.5.22,276.08c.19-31.21.38-63.49.02-95.16v-.23s.02-.23.02-.23c3.56-30.19,21.11-55.08,48.17-68.29l.13-.06.14-.05c40.84-15.99,81.86-33.76,121.54-50.96,42.2-18.29,85.83-37.19,129.41-54.02l1.02-.4c9.64-3.73,17.26-6.67,27.6-6.67,2.35,0,4.76.14,7.35.44l.45.05.42.16c61.56,23.55,123.33,49.7,183.07,74.99,38.93,16.48,79.18,33.52,118.98,49.67,11.64,4.36,18.13,14.53,16.53,25.94-1.34,9.53-9.09,19.64-23.39,20.75l-.82.06-.76-.29c-52.16-20.2-104.64-42.39-155.4-63.86-48.06-20.33-97.76-41.35-147.04-60.61-2.48.07-5,1.12-7.65,2.23-.95.4-1.89.79-2.84,1.15-42.9,16.13-85.79,34.93-127.26,53.11-38.67,16.95-78.66,34.48-118.66,49.85-12.66,4.94-22.03,16.49-23.93,29.48l.1,239.26c2.69,7.34,5.36,14.71,8.03,22.09,9.06,25.02,18.42,50.89,28.73,75.72.39.95.75,1.9,1.11,2.84,1.8,4.77,2.93,7.38,6.49,8.42l140.4.16c2.69-.65,4.33-2.03,5.3-4.45l.07-.17c7.9-17.07,14.68-35.67,21.24-53.66,6.96-19.1,14.17-38.85,22.75-56.91,18.27-38.46,56.44-63.31,97.25-63.31.42,0,.84,0,1.27,0v-103.46c0-25.26,29.6-49.03,52.54-49.03.51,0,1.01.01,1.52.03,9.64.49,19.93.73,31.5.73,16.13,0,32.72-.47,48.77-.93,16.09-.46,32.72-.93,48.92-.93,14.32,0,26.9.37,38.45,1.13,29.16,1.91,50.17,21.42,53.52,49.69l.04.31-.02.32c-.85,14.84-.27,30.81.29,46.25.65,17.84,1.31,36.29-.18,53.43-1.57,17.96-12.6,35-28.09,43.42-2.11,1.15-14.5,6.23-17.85,6.23h-182.32v203.06c.56,1.45,4.07,4.13,5.43,4.13l.23-.03h.19s170.29.02,170.29.02c2.69-.43,4.03-2.69,4.61-4.07l.55-158.68.08-.37c2.93-13.53,13.83-19.58,23.34-19.58,10.47,0,22.32,7.17,23.6,22.92v.15s-.03,156.88-.03,156.88l-.02.19c-2.79,25.83-21.44,45.74-46.4,49.53l-.27.04-182.78-.1ZM604.26,353.22c1.4-.59,4.07-4.18,4.13-5.59v-.16s-.01-92.6-.01-92.6c-.74-4.74-3.12-6.63-8.99-7.15l-166.66.48c-2.1.38-4.98,2.91-5.59,4.87v100.14h177.13ZM467.18,519.74c-8.08,0-17.28-6.11-18.36-19.53-.89-10.96-.46-22.72-.05-34.08.32-8.9.66-18.1.34-26.66v-.2s0-.2,0-.2c.67-8.92,8.61-16.34,17.7-16.53h.43c9.61,0,16.91,6.65,17.75,16.17.99,11.24.53,23.34.09,35.04-.39,10.32-.8,20.99-.19,30.84l.05.75-.25.7c-3.06,8.45-9.77,13.71-17.5,13.71h0ZM467.5,336.65c-8.11,0-16.99-5.2-18.54-16.82-.9-6.74-.95-26.97.17-33.66,1.06-6.34,6.07-13.89,13.26-15.4,1.46-.31,2.96-.46,4.44-.46,9.41,0,16.82,6.09,18.01,14.82.96,7.02,1.02,31.12-.17,37.7-1.47,8.13-8.53,13.81-17.17,13.81h0Z"/>
</svg>